<svg width="24" height="24" viewBox="0 0 24 24" fill="none" xmlns="http://www.w3.org/2000/svg">
<path d="M4.38645 4.68351L4.38673 4.6838L10.2226 10.5102L8.09958 12.6333L4.26498 8.80784C4.26467 8.80752 4.26436 8.80721 4.26405 8.8069C3.18786 7.72116 2.96003 6.12063 3.58064 4.81658C3.72886 4.51227 4.14603 4.44309 4.38645 4.68351ZM15.0905 11.0764L14.7735 10.9293L14.5264 11.1764L13.0564 12.6464L12.7029 13L13.0564 13.3535L19.2364 19.5335C19.2826 19.5797 19.3192 19.6345 19.3442 19.6948C19.3692 19.7551 19.382 19.8197 19.382 19.885C19.382 19.9502 19.3692 20.0149 19.3442 20.0752C19.3192 20.1355 19.2826 20.1903 19.2364 20.2364C19.1903 20.2826 19.1355 20.3192 19.0752 20.3441C19.0149 20.3691 18.9503 20.382 18.885 20.382C18.8197 20.382 18.7551 20.3691 18.6948 20.3441C18.6345 20.3192 18.5797 20.2826 18.5336 20.2364L12.3536 14.0564L12.0006 13.7034L11.647 14.0558L5.45702 20.2258L5.45645 20.2264C5.36324 20.3196 5.23682 20.372 5.105 20.372C4.97319 20.372 4.84677 20.3196 4.75356 20.2264C4.66035 20.1332 4.60798 20.0068 4.60798 19.875C4.60798 19.7431 4.66035 19.6167 4.75356 19.5235L13.8136 10.4635L14.0606 10.2164L13.9135 9.89949C13.3155 8.61073 13.708 6.67932 15.1933 5.19381C16.0823 4.30967 17.1485 3.79757 18.138 3.6669C19.1273 3.53626 20.0098 3.78685 20.6064 4.38351C21.2083 4.98538 21.4585 5.87037 21.3269 6.85895C21.1951 7.8483 20.6807 8.91215 19.7964 9.7964C18.3109 11.2819 16.3793 11.6745 15.0905 11.0764Z" stroke="#FC353A"/>
</svg>
